# xmcd
#
# Track frame offsets:
#	150
#	17247
#	30092
#	51847
#	65840
#	80590
#	95560
#	124515
#	138452
#	157730
#	172060
#	189065
#	204292
#	217772
#	231612
#	247372
#	261480
#	284350
#	302892
#
# Disc length: 4258 seconds
#
# Revision: 1
# Processed by: cddbd v1.4b41PL1 Copyright (c) Steve Scherf et al.
# Submitted via: audiograbber 1.80
#
DISCID=1210a013
DTITLE=Al Green - The Very Best of Al Green
DYEAR=1900
DGENRE=
TTITLE0=I Can't Get Next To You
TTITLE1=Tired Of Being Alone
TTITLE2=Let's Stay Together
TTITLE3=Look What You Done for Me
TTITLE4=I'm Still In Love With You
TTITLE5=You Ought To Be With Me
TTITLE6=How Can You Mend A Broken Heart
TTITLE7=Call Me (Come Back Home)
TTITLE8=Here I Am (Come And Take Me)
TTITLE9=Livin' For You
TTITLE10=Take Me To The River
TTITLE11=Let's Get Married
TTITLE12=Sha-La-La (Make Me Happy)
TTITLE13=L-O-V-E (Love)
TTITLE14=Full Of Fire
TTITLE15=Keep Me Cryin'
TTITLE16=Love And Happiness
TTITLE17=To Sir With Love
TTITLE18=Al Green and Al B. Sure -- As Long As We're Together
EXTD=EMI Music Canada
EXTT0=
EXTT1=
EXTT2=
EXTT3=
EXTT4=
EXTT5=
EXTT6=
EXTT7=
EXTT8=
EXTT9=
EXTT10=
EXTT11=
EXTT12=
EXTT13=
EXTT14=
EXTT15=
EXTT16=
EXTT17=
EXTT18=
PLAYORDER=
